<svg width="140" height="140" viewBox="0 0 140 140" fill="none" xmlns="http://www.w3.org/2000/svg">
<path d="M70 0C108.66 0 140 31.3401 140 70C140 108.66 108.66 140 70 140C56.8266 140 44.5038 136.36 33.9806 130.033V91.6472L49.3361 107.003C60.7484 118.415 79.2515 118.415 90.6639 107.003L107.003 90.6639C118.415 79.2515 118.415 60.7485 107.003 49.3361L90.6639 32.9973C79.2515 21.5849 60.7485 21.5849 49.3361 32.9973L32.9973 49.3361C26.9664 55.367 24.1228 63.378 24.466 71.2764V123.166C9.48998 110.328 0 91.2725 0 70C0 31.3401 31.3401 0 70 0Z" fill="#F73C1F"/>
<path d="M56.0637 39.7249C63.7604 32.0282 76.2395 32.0282 83.9363 39.7249L100.275 56.0637C107.972 63.7605 107.972 76.2396 100.275 83.9363L83.9363 100.275C76.2396 107.972 63.7604 107.972 56.0637 100.275L39.7249 83.9363C36.1419 80.3533 34.2277 75.7336 33.9806 71.0428V70H33.9524C33.9524 64.956 35.8766 59.9121 39.7249 56.0637L56.0637 39.7249Z" fill="#F73C1F"/>
</svg>
