<svg xmlns="http://www.w3.org/2000/svg" width="40" height="40" viewBox="0 0 40 40" fill="none">
  <path d="M 20 0 C 31.046 0 40 8.954 40 20 C 40 31.046 31.046 40 20 40 C 16.236 40 12.715 38.96 9.709 37.152 L 9.709 26.185 L 14.096 30.572 C 17.357 33.833 22.643 33.833 25.904 30.572 L 30.572 25.904 C 33.833 22.643 33.833 17.357 30.572 14.096 L 25.904 9.428 C 22.643 6.167 17.357 6.167 14.096 9.428 L 9.428 14.096 C 7.705 15.819 6.892 18.108 6.99 20.365 L 6.99 35.19 C 2.711 31.522 0 26.078 0 20 C 0 8.954 8.954 0 20 0 Z" fill="#F73C1F" fill-rule="nonzero"></path>
  <path d="M 16.018 11.35 C 18.217 9.151 21.783 9.151 23.982 11.35 L 28.65 16.018 C 30.849 18.217 30.849 21.783 28.65 23.982 L 23.982 28.65 C 21.783 30.849 18.217 30.849 16.018 28.65 L 11.35 23.982 C 10.326 22.958 9.779 21.638 9.709 20.298 L 9.709 20 L 9.701 20 C 9.701 18.559 10.25 17.118 11.35 16.018 L 16.018 11.35 Z" fill="#F73C1F" fill-rule="nonzero"></path>
</svg>